<mxfile host="app.diagrams.net" agent="Mozilla/5.0 (Macintosh; Intel Mac OS X 10_15_7) AppleWebKit/537.36 (KHTML, like Gecko) Chrome/134.0.0.0 Safari/537.36" version="26.0.16">
  <diagram name="Page-1" id="ib-y7zfRI86RBeU3RG47">
    <mxGraphModel dx="1354" dy="552" grid="1" gridSize="10" guides="1" tooltips="1" connect="1" arrows="1" fold="1" page="1" pageScale="1" pageWidth="850" pageHeight="1100" math="0" shadow="0">
      <root>
        <mxCell id="0" />
        <mxCell id="1" parent="0" />
        <mxCell id="PHWX-da5ZttQmNwxShSh-44" value="" style="rounded=0;whiteSpace=wrap;html=1;" vertex="1" parent="1">
          <mxGeometry x="330" y="10" width="430" height="210" as="geometry" />
        </mxCell>
        <mxCell id="PHWX-da5ZttQmNwxShSh-73" style="edgeStyle=orthogonalEdgeStyle;rounded=0;orthogonalLoop=1;jettySize=auto;html=1;entryX=0.5;entryY=0;entryDx=0;entryDy=0;" edge="1" parent="1" source="PHWX-da5ZttQmNwxShSh-72" target="PHWX-da5ZttQmNwxShSh-23">
          <mxGeometry relative="1" as="geometry" />
        </mxCell>
        <mxCell id="PHWX-da5ZttQmNwxShSh-72" value="" style="ellipse;whiteSpace=wrap;html=1;aspect=fixed;" vertex="1" parent="1">
          <mxGeometry x="477.76" y="20" width="70" height="70" as="geometry" />
        </mxCell>
        <mxCell id="PHWX-da5ZttQmNwxShSh-30" value="" style="edgeStyle=orthogonalEdgeStyle;rounded=0;orthogonalLoop=1;jettySize=auto;html=1;" edge="1" parent="1" source="PHWX-da5ZttQmNwxShSh-17">
          <mxGeometry relative="1" as="geometry">
            <mxPoint x="680" y="150" as="targetPoint" />
          </mxGeometry>
        </mxCell>
        <mxCell id="PHWX-da5ZttQmNwxShSh-17" value="DB" style="shape=cylinder3;whiteSpace=wrap;html=1;boundedLbl=1;backgroundOutline=1;size=15;" vertex="1" parent="1">
          <mxGeometry x="600" y="125" width="40" height="50" as="geometry" />
        </mxCell>
        <mxCell id="PHWX-da5ZttQmNwxShSh-19" value="1) Criar JWT" style="text;html=1;align=center;verticalAlign=middle;whiteSpace=wrap;rounded=0;" vertex="1" parent="1">
          <mxGeometry x="192.5" y="10" width="110" height="30" as="geometry" />
        </mxCell>
        <mxCell id="PHWX-da5ZttQmNwxShSh-20" value="2) Validar JWT para cada req." style="text;html=1;align=center;verticalAlign=middle;whiteSpace=wrap;rounded=0;" vertex="1" parent="1">
          <mxGeometry x="130" y="40" width="190" height="30" as="geometry" />
        </mxCell>
        <mxCell id="PHWX-da5ZttQmNwxShSh-22" value="Gateway + Security" style="text;html=1;align=center;verticalAlign=middle;whiteSpace=wrap;rounded=0;" vertex="1" parent="1">
          <mxGeometry x="160" y="190" width="115" height="30" as="geometry" />
        </mxCell>
        <mxCell id="PHWX-da5ZttQmNwxShSh-74" style="edgeStyle=orthogonalEdgeStyle;rounded=0;orthogonalLoop=1;jettySize=auto;html=1;entryX=0.5;entryY=1;entryDx=0;entryDy=0;" edge="1" parent="1" source="PHWX-da5ZttQmNwxShSh-23" target="PHWX-da5ZttQmNwxShSh-72">
          <mxGeometry relative="1" as="geometry" />
        </mxCell>
        <mxCell id="PHWX-da5ZttQmNwxShSh-23" value="Service" style="shape=process;whiteSpace=wrap;html=1;backgroundOutline=1;" vertex="1" parent="1">
          <mxGeometry x="470" y="132.5" width="85.5" height="35" as="geometry" />
        </mxCell>
        <mxCell id="PHWX-da5ZttQmNwxShSh-28" style="edgeStyle=orthogonalEdgeStyle;rounded=0;orthogonalLoop=1;jettySize=auto;html=1;entryX=0;entryY=0.5;entryDx=0;entryDy=0;entryPerimeter=0;" edge="1" parent="1" source="PHWX-da5ZttQmNwxShSh-23" target="PHWX-da5ZttQmNwxShSh-17">
          <mxGeometry relative="1" as="geometry" />
        </mxCell>
        <mxCell id="PHWX-da5ZttQmNwxShSh-36" value="" style="sketch=0;pointerEvents=1;shadow=0;dashed=0;html=1;strokeColor=none;fillColor=#505050;labelPosition=center;verticalLabelPosition=bottom;verticalAlign=top;outlineConnect=0;align=center;shape=mxgraph.office.security.token;" vertex="1" parent="1">
          <mxGeometry x="496.13" y="34.5" width="33.25" height="41" as="geometry" />
        </mxCell>
        <mxCell id="PHWX-da5ZttQmNwxShSh-50" value="TB_USERS" style="shape=table;startSize=20;container=1;collapsible=0;childLayout=tableLayout;strokeColor=default;fontSize=8;" vertex="1" parent="1">
          <mxGeometry x="680" y="125" width="70" height="50" as="geometry" />
        </mxCell>
        <mxCell id="PHWX-da5ZttQmNwxShSh-51" value="" style="shape=tableRow;horizontal=0;startSize=0;swimlaneHead=0;swimlaneBody=0;strokeColor=inherit;top=0;left=0;bottom=0;right=0;collapsible=0;dropTarget=0;fillColor=none;points=[[0,0.5],[1,0.5]];portConstraint=eastwest;fontSize=16;" vertex="1" parent="PHWX-da5ZttQmNwxShSh-50">
          <mxGeometry y="20" width="70" height="10" as="geometry" />
        </mxCell>
        <mxCell id="PHWX-da5ZttQmNwxShSh-52" value="" style="shape=partialRectangle;html=1;whiteSpace=wrap;connectable=0;strokeColor=inherit;overflow=hidden;fillColor=none;top=0;left=0;bottom=0;right=0;pointerEvents=1;fontSize=16;" vertex="1" parent="PHWX-da5ZttQmNwxShSh-51">
          <mxGeometry width="23" height="10" as="geometry">
            <mxRectangle width="23" height="10" as="alternateBounds" />
          </mxGeometry>
        </mxCell>
        <mxCell id="PHWX-da5ZttQmNwxShSh-53" value="" style="shape=partialRectangle;html=1;whiteSpace=wrap;connectable=0;strokeColor=inherit;overflow=hidden;fillColor=none;top=0;left=0;bottom=0;right=0;pointerEvents=1;fontSize=16;" vertex="1" parent="PHWX-da5ZttQmNwxShSh-51">
          <mxGeometry x="23" width="27" height="10" as="geometry">
            <mxRectangle width="27" height="10" as="alternateBounds" />
          </mxGeometry>
        </mxCell>
        <mxCell id="PHWX-da5ZttQmNwxShSh-54" value="" style="shape=partialRectangle;html=1;whiteSpace=wrap;connectable=0;strokeColor=inherit;overflow=hidden;fillColor=none;top=0;left=0;bottom=0;right=0;pointerEvents=1;fontSize=16;" vertex="1" parent="PHWX-da5ZttQmNwxShSh-51">
          <mxGeometry x="50" width="20" height="10" as="geometry">
            <mxRectangle width="20" height="10" as="alternateBounds" />
          </mxGeometry>
        </mxCell>
        <mxCell id="PHWX-da5ZttQmNwxShSh-55" value="" style="shape=tableRow;horizontal=0;startSize=0;swimlaneHead=0;swimlaneBody=0;strokeColor=inherit;top=0;left=0;bottom=0;right=0;collapsible=0;dropTarget=0;fillColor=none;points=[[0,0.5],[1,0.5]];portConstraint=eastwest;fontSize=16;" vertex="1" parent="PHWX-da5ZttQmNwxShSh-50">
          <mxGeometry y="30" width="70" height="10" as="geometry" />
        </mxCell>
        <mxCell id="PHWX-da5ZttQmNwxShSh-56" value="" style="shape=partialRectangle;html=1;whiteSpace=wrap;connectable=0;strokeColor=inherit;overflow=hidden;fillColor=none;top=0;left=0;bottom=0;right=0;pointerEvents=1;fontSize=16;" vertex="1" parent="PHWX-da5ZttQmNwxShSh-55">
          <mxGeometry width="23" height="10" as="geometry">
            <mxRectangle width="23" height="10" as="alternateBounds" />
          </mxGeometry>
        </mxCell>
        <mxCell id="PHWX-da5ZttQmNwxShSh-57" value="" style="shape=partialRectangle;html=1;whiteSpace=wrap;connectable=0;strokeColor=inherit;overflow=hidden;fillColor=none;top=0;left=0;bottom=0;right=0;pointerEvents=1;fontSize=16;" vertex="1" parent="PHWX-da5ZttQmNwxShSh-55">
          <mxGeometry x="23" width="27" height="10" as="geometry">
            <mxRectangle width="27" height="10" as="alternateBounds" />
          </mxGeometry>
        </mxCell>
        <mxCell id="PHWX-da5ZttQmNwxShSh-58" value="" style="shape=partialRectangle;html=1;whiteSpace=wrap;connectable=0;strokeColor=inherit;overflow=hidden;fillColor=none;top=0;left=0;bottom=0;right=0;pointerEvents=1;fontSize=16;" vertex="1" parent="PHWX-da5ZttQmNwxShSh-55">
          <mxGeometry x="50" width="20" height="10" as="geometry">
            <mxRectangle width="20" height="10" as="alternateBounds" />
          </mxGeometry>
        </mxCell>
        <mxCell id="PHWX-da5ZttQmNwxShSh-59" value="" style="shape=tableRow;horizontal=0;startSize=0;swimlaneHead=0;swimlaneBody=0;strokeColor=inherit;top=0;left=0;bottom=0;right=0;collapsible=0;dropTarget=0;fillColor=none;points=[[0,0.5],[1,0.5]];portConstraint=eastwest;fontSize=16;" vertex="1" parent="PHWX-da5ZttQmNwxShSh-50">
          <mxGeometry y="40" width="70" height="10" as="geometry" />
        </mxCell>
        <mxCell id="PHWX-da5ZttQmNwxShSh-60" value="" style="shape=partialRectangle;html=1;whiteSpace=wrap;connectable=0;strokeColor=inherit;overflow=hidden;fillColor=none;top=0;left=0;bottom=0;right=0;pointerEvents=1;fontSize=16;" vertex="1" parent="PHWX-da5ZttQmNwxShSh-59">
          <mxGeometry width="23" height="10" as="geometry">
            <mxRectangle width="23" height="10" as="alternateBounds" />
          </mxGeometry>
        </mxCell>
        <mxCell id="PHWX-da5ZttQmNwxShSh-61" value="" style="shape=partialRectangle;html=1;whiteSpace=wrap;connectable=0;strokeColor=inherit;overflow=hidden;fillColor=none;top=0;left=0;bottom=0;right=0;pointerEvents=1;fontSize=16;" vertex="1" parent="PHWX-da5ZttQmNwxShSh-59">
          <mxGeometry x="23" width="27" height="10" as="geometry">
            <mxRectangle width="27" height="10" as="alternateBounds" />
          </mxGeometry>
        </mxCell>
        <mxCell id="PHWX-da5ZttQmNwxShSh-62" value="" style="shape=partialRectangle;html=1;whiteSpace=wrap;connectable=0;strokeColor=inherit;overflow=hidden;fillColor=none;top=0;left=0;bottom=0;right=0;pointerEvents=1;fontSize=16;" vertex="1" parent="PHWX-da5ZttQmNwxShSh-59">
          <mxGeometry x="50" width="20" height="10" as="geometry">
            <mxRectangle width="20" height="10" as="alternateBounds" />
          </mxGeometry>
        </mxCell>
        <mxCell id="PHWX-da5ZttQmNwxShSh-67" style="edgeStyle=orthogonalEdgeStyle;rounded=0;orthogonalLoop=1;jettySize=auto;html=1;entryX=0;entryY=0.5;entryDx=0;entryDy=0;" edge="1" parent="1" source="PHWX-da5ZttQmNwxShSh-64" target="PHWX-da5ZttQmNwxShSh-23">
          <mxGeometry relative="1" as="geometry" />
        </mxCell>
        <mxCell id="PHWX-da5ZttQmNwxShSh-64" value="Controller" style="sketch=0;verticalLabelPosition=bottom;sketch=0;aspect=fixed;html=1;verticalAlign=top;strokeColor=none;fillColor=#000000;align=center;outlineConnect=0;pointerEvents=1;shape=mxgraph.citrix2.delivery_controller;" vertex="1" parent="1">
          <mxGeometry x="380" y="125" width="50" height="50" as="geometry" />
        </mxCell>
        <mxCell id="PHWX-da5ZttQmNwxShSh-66" style="edgeStyle=orthogonalEdgeStyle;rounded=0;orthogonalLoop=1;jettySize=auto;html=1;" edge="1" parent="1" source="PHWX-da5ZttQmNwxShSh-65" target="PHWX-da5ZttQmNwxShSh-64">
          <mxGeometry relative="1" as="geometry" />
        </mxCell>
        <mxCell id="PHWX-da5ZttQmNwxShSh-65" value="" style="sketch=0;pointerEvents=1;shadow=0;dashed=0;html=1;strokeColor=none;fillColor=#434445;aspect=fixed;labelPosition=center;verticalLabelPosition=bottom;verticalAlign=top;align=center;outlineConnect=0;shape=mxgraph.vvd.nsx_controller;" vertex="1" parent="1">
          <mxGeometry x="192.5" y="125" width="50" height="50" as="geometry" />
        </mxCell>
        <mxCell id="PHWX-da5ZttQmNwxShSh-75" value="JWT" style="text;html=1;align=center;verticalAlign=middle;whiteSpace=wrap;rounded=0;" vertex="1" parent="1">
          <mxGeometry x="436.13" y="20" width="60" height="30" as="geometry" />
        </mxCell>
      </root>
    </mxGraphModel>
  </diagram>
</mxfile>
